<?xml version="1.0" encoding="UTF-8"?>
<svg id="white" xmlns="http://www.w3.org/2000/svg" viewBox="0 0 933.18 314.38">
  <defs>
    <style>
      .cls-1 {
        fill: #fff;
      }
    </style>
  </defs>
  <path id="svg_96" data-name="svg 96" class="cls-1" d="M197.33,176.88l.11-1.72,.17-1.71,.24-1.68,.31-1.66,.37-1.64,.43-1.61,.5-1.59,.56-1.56,.62-1.53,.67-1.5,.73-1.47,.79-1.44,.84-1.4,.89-1.37,.94-1.33,.99-1.29,1.04-1.25,1.09-1.21,1.13-1.17,1.18-1.12,1.22-1.08,1.26-1.03,1.3-.99,1.34-.94,1.38-.89,1.41-.83,1.45-.78,1.48-.73,1.51-.67,1.54-.61,1.57-.55,1.6-.49,1.62-.43,1.65-.37,1.67-.31,1.69-.24,1.72-.17,1.74-.1,1.75-.04,1.75,.04,1.74,.1,1.72,.17,1.69,.24,1.67,.31,1.65,.37,1.62,.43,1.6,.49,1.57,.55,1.54,.61,1.51,.67,1.48,.73,1.45,.78,1.41,.83,1.38,.89,1.34,.94,1.3,.99,1.26,1.03,1.22,1.08,1.18,1.12,1.13,1.17,1.09,1.21,1.04,1.25,.99,1.29,.94,1.33,.89,1.37,.84,1.4,.79,1.44,.73,1.47,.67,1.5,.62,1.53,.56,1.56,.5,1.59,.43,1.61,.37,1.64,.31,1.66,.24,1.68,.17,1.71,.11,1.72,.04,1.74h0v56.7h-28.35v-56.45l-.19-2.29-.54-2.17-.86-2.02-1.15-1.85-1.42-1.64-1.65-1.41-1.86-1.15-2.03-.85-2.18-.53-2.3-.18-2.3,.18-2.18,.53-2.03,.85-1.86,1.15-1.65,1.41-1.42,1.64-1.15,1.85-.86,2.02-.54,2.17-.19,2.29v56.48h-28.35v-56.73l.04-1.74h0Z" vector-effect="non-scaling-stroke"/>
  <circle id="svg_97" data-name="svg 97" class="cls-1" cx="239.82" cy="187.09" r="8.5" vector-effect="non-scaling-stroke"/>
  <path id="svg_100" data-name="svg 100" class="cls-1" d="M296.55,176.68l.11-1.73,.17-1.71,.24-1.69,.31-1.67,.37-1.64,.43-1.62,.5-1.59,.56-1.56,.62-1.54,.67-1.51,.73-1.47,.79-1.44,.84-1.41,.89-1.37,.94-1.33,.99-1.29,1.04-1.26,1.09-1.21,1.13-1.17,1.18-1.13,1.22-1.08,1.26-1.04,1.3-.99,1.34-.94,1.38-.89,1.41-.84,1.45-.78,1.48-.73,1.51-.67,1.54-.61,1.57-.56,1.6-.49,1.62-.43,1.65-.37,1.67-.31,1.69-.24,1.72-.17,1.74-.11,1.75-.04,1.75,.04,1.74,.11,1.72,.17,1.69,.24,1.67,.31,1.65,.37,1.62,.43,1.6,.49,1.57,.56,1.54,.61,1.51,.67,1.48,.73,1.45,.78,1.41,.84,1.38,.89,1.34,.94,1.3,.99,1.26,1.04,1.22,1.08,1.18,1.13,1.13,1.17,1.09,1.21,1.04,1.26,.99,1.29,.94,1.33,.89,1.37,.84,1.41,.79,1.44,.73,1.47,.67,1.51,.62,1.54,.56,1.56,.5,1.59,.43,1.62,.37,1.64,.31,1.67,.24,1.69,.17,1.71,.11,1.73,.04,1.75h0v56.83h-28.35v-56.57l-.19-2.29-.54-2.17-.86-2.03-1.15-1.85-1.42-1.65-1.65-1.41-1.86-1.15-2.03-.86-2.18-.53-2.3-.18-2.3,.18-2.18,.53-2.03,.86-1.86,1.15-1.65,1.41-1.42,1.65-1.15,1.85-.86,2.03-.54,2.17-.19,2.29v56.6h-28.35v-56.85l.04-1.75h0Z" vector-effect="non-scaling-stroke"/>
  <path id="svg_114" data-name="svg 114" class="cls-1" d="M55.56,235.28H13.05v-85.04H55.56v85.04Zm113.39,0h-42.52V107.72h42.52v127.56ZM96.67,65.03h15.59V235.11h-42.52V65.03h15.59V8.51h11.34v56.52Z" vector-effect="non-scaling-stroke"/>
  <path id="svg_135" data-name="svg 135" class="cls-1" d="M594.18,176.68l.11-1.73,.17-1.71,.24-1.69,.31-1.67,.37-1.64,.43-1.62,.5-1.59,.56-1.56,.62-1.54,.67-1.51,.73-1.47,.79-1.44,.84-1.41,.89-1.37,.94-1.33,.99-1.29,1.04-1.26,1.09-1.21,1.13-1.17,1.18-1.13,1.22-1.08,1.26-1.04,1.3-.99,1.34-.94,1.38-.89,1.41-.84,1.45-.78,1.48-.73,1.51-.67,1.54-.61,1.57-.56,1.6-.49,1.62-.43,1.65-.37,1.67-.31,1.69-.24,1.72-.17,1.74-.11,1.75-.04,1.75,.04,1.74,.11,1.72,.17,1.69,.24,1.67,.31,1.65,.37,1.62,.43,1.6,.49,1.57,.56,1.54,.61,1.51,.67,1.48,.73,1.45,.78,1.41,.84,1.38,.89,1.34,.94,1.3,.99,1.26,1.04,1.22,1.08,1.18,1.13,1.13,1.17,1.09,1.21,1.04,1.26,.99,1.29,.94,1.33,.89,1.37,.84,1.41,.79,1.44,.73,1.47,.67,1.51,.62,1.54,.56,1.56,.5,1.59,.43,1.62,.37,1.64,.31,1.67,.24,1.69,.17,1.71,.11,1.73,.04,1.75h0v56.83h-28.35v-56.57l-.19-2.29-.54-2.17-.86-2.03-1.15-1.85-1.42-1.65-1.65-1.41-1.86-1.15-2.03-.86-2.18-.53-2.3-.18-2.3,.18-2.18,.53-2.03,.86-1.86,1.15-1.65,1.41-1.42,1.65-1.15,1.85-.86,2.03-.54,2.17-.19,2.29v56.6h-28.35v-56.85l.04-1.75h0Z" vector-effect="non-scaling-stroke"/>
  <path id="svg_136" data-name="svg 136" class="cls-1" d="M539.15,136.11l1.73,.11,1.71,.18,1.69,.25,1.67,.31,1.65,.38,1.62,.44,1.6,.51,1.57,.57,1.54,.63,1.51,.69,1.48,.74,1.44,.8,1.41,.85,1.37,.91,1.34,.96,1.3,1.01,1.26,1.06,1.22,1.11,1.17,1.15,1.13,1.2,1.09,1.24,1.04,1.28,.99,1.32,.94,1.36,.89,1.4,.84,1.44,.78,1.47,.73,1.51,.67,1.54,.62,1.57,.56,1.6,.5,1.63,.43,1.65,.37,1.68,.31,1.7,.24,1.73,.17,1.75,.11,1.77,.02,.93h.12v14.2h-.11l-.02,1.08-.11,1.77-.17,1.75-.24,1.73-.31,1.7-.37,1.68-.43,1.65-.5,1.63-.56,1.6-.62,1.57-.67,1.54-.73,1.51-.78,1.47-.84,1.44-.89,1.4-.94,1.36-.99,1.32-1.04,1.28-1.09,1.24-1.13,1.2-1.17,1.15-1.22,1.11-1.26,1.06-1.3,1.01-1.34,.96-1.37,.91-1.41,.85-1.44,.8-1.48,.74-1.51,.69-1.54,.63-1.57,.57-1.6,.51-1.62,.44-1.65,.38-1.67,.31-1.69,.25-1.71,.18-1.73,.11-1.75,.04-1.75-.04-1.73-.11-1.71-.18-1.69-.25-1.67-.31-1.65-.38-1.62-.44-1.6-.51-1.57-.57-1.54-.63-1.51-.69-1.48-.74-1.44-.8-1.41-.85-1.37-.91-1.34-.96-1.3-1.01-1.26-1.06-1.22-1.11-1.17-1.15-1.13-1.2-1.09-1.24-1.04-1.28-.99-1.32-.94-1.36-.89-1.4-.84-1.44-.78-1.47-.73-1.51-.67-1.54-.62-1.57-.56-1.6-.5-1.63-.43-1.65-.37-1.68-.31-1.7-.24-1.73-.17-1.75-.11-1.77-.02-1.08h.27v-14.04h-.27l.02-1.08,.11-1.77,.17-1.75,.24-1.73,.31-1.7,.37-1.68,.43-1.65,.5-1.63,.56-1.6,.62-1.57,.67-1.54,.73-1.51,.78-1.47,.84-1.44,.89-1.4,.94-1.36,.99-1.32,1.04-1.28,1.09-1.24,1.13-1.2,1.17-1.15,1.22-1.11,1.26-1.06,1.3-1.01,1.34-.96,1.37-.91,1.41-.85,1.44-.8,1.48-.74,1.51-.69,1.54-.63,1.57-.57,1.6-.51,1.62-.44,1.65-.38,1.67-.31,1.69-.25,1.71-.18,1.73-.11,1.75-.04,1.75,.04h0Zm-4.05,29.27l-2.18,.55-2.03,.87-1.86,1.17-1.65,1.44-1.41,1.68-1.15,1.89-.86,2.07-.54,2.22-.1,1.22h.18v14.2h-.19l.11,1.38,.54,2.22,.86,2.07,1.15,1.89,1.41,1.68,1.65,1.44,1.86,1.17,2.03,.87,2.18,.55,2.3,.19,2.3-.19,2.18-.55,2.03-.87,1.86-1.17,1.65-1.44,1.41-1.68,1.15-1.89,.86-2.07,.54-2.22,.11-1.38h.19v-14.04h-.19l-.11-1.38-.54-2.22-.86-2.07-1.15-1.89-1.41-1.68-1.65-1.44-1.86-1.17-2.03-.87-2.18-.55-2.3-.19-2.3,.19h0Z" vector-effect="non-scaling-stroke"/>
  <path id="svg_132" data-name="svg 132" class="cls-1" d="M480.88,192.76h-.11l-.02,1.08-.11,1.76-.17,1.74-.24,1.72-.31,1.7-.37,1.68-.44,1.65-.5,1.62-.56,1.6-.62,1.57-.67,1.54-.73,1.5-.79,1.47-.84,1.43-.89,1.4-.94,1.36-.99,1.32-1.04,1.28-1.09,1.24-1.13,1.2-1.18,1.15-1.22,1.1-1.26,1.06-1.3,1.01-1.34,.96-1.38,.91-1.41,.85-1.45,.8-1.48,.74-1.51,.68-1.54,.63-1.57,.57-1.6,.5-1.62,.44-1.65,.38-1.67,.31-1.7,.25-1.72,.18-1.74,.11-1.75,.04-1.75-.04-1.74-.11-1.72-.18-1.7-.25-1.67-.31-1.65-.38-1.62-.44-1.6-.5-1.57-.57-1.54-.63-1.51-.68-1.48-.74-1.45-.8-1.41-.85-1.38-.91-1.34-.96-1.3-1.01-1.26-1.06-1.22-1.1-1.18-1.15-1.13-1.2-1.09-1.24-1.04-1.28-.99-1.32-.94-1.36-.89-1.4-.84-1.43-.79-1.47-.73-1.5-.67-1.54-.62-1.57-.56-1.6-.5-1.62-.44-1.65-.37-1.68-.31-1.7-.24-1.72-.17-1.74-.11-1.76-.02-1.08h.27v-14.02h-.27l.02-1.08,.11-1.76,.17-1.74,.24-1.72,.31-1.7,.37-1.68,.44-1.65,.5-1.62,.56-1.6,.62-1.57,.67-1.54,.73-1.5,.79-1.47,.84-1.43,.89-1.4,.94-1.36,.99-1.32,1.04-1.28,1.09-1.24,1.13-1.2,1.18-1.15,1.22-1.1,1.26-1.06,1.3-1.01,1.34-.96,1.38-.91,1.41-.85,1.45-.8,1.48-.74,1.51-.68,1.54-.63,1.57-.57,1.6-.5,1.62-.44,1.65-.38,1.67-.31,1.7-.25,1.72-.18,1.74-.11,1.75-.04,1.75,.04,1.74,.11,1.72,.18,1.7,.25,1.67,.31,1.65,.38,1.62,.44,1.6,.5,.73,.26v-59.31h28.35v99.21h.12v14.17h0Zm-44.94-27.27l-2.18,.55-2.03,.87-1.86,1.17-1.65,1.44-1.42,1.68-1.15,1.89-.86,2.07-.54,2.22-.1,1.22h.18v14.17h-.19l.11,1.38,.54,2.22,.86,2.07,1.15,1.89,1.42,1.68,1.65,1.44,1.86,1.17,2.03,.87,2.18,.55,2.3,.19,2.3-.19,2.18-.55,2.03-.87,1.86-1.17,1.65-1.44,1.42-1.68,1.15-1.89,.86-2.07,.54-2.22,.11-1.38h.19v-14.02h-.19l-.11-1.38-.54-2.22-.86-2.07-1.15-1.89-1.42-1.68-1.65-1.44-1.86-1.17-2.03-.87-2.18-.55-2.3-.19-2.3,.19Z" vector-effect="non-scaling-stroke"/>
  <path id="svg_157" data-name="svg 157" class="cls-1" d="M792.61,176.68l.11-1.73,.17-1.71,.24-1.69,.31-1.67,.37-1.64,.43-1.62,.5-1.59,.56-1.56,.62-1.54,.67-1.51,.73-1.47,.79-1.44,.84-1.41,.89-1.37,.94-1.33,.99-1.29,1.04-1.26,1.09-1.21,1.13-1.17,1.18-1.13,1.22-1.08,1.26-1.04,1.3-.99,1.34-.94,1.38-.89,1.41-.84,1.45-.78,1.48-.73,1.51-.67,1.54-.61,1.57-.56,1.6-.49,1.62-.43,1.65-.37,1.67-.31,1.69-.24,1.72-.17,1.74-.11,1.75-.04,1.75,.04,1.74,.11,1.72,.17,1.69,.24,1.67,.31,1.65,.37,1.62,.43,1.6,.49,1.57,.56,1.54,.61,1.51,.67,1.48,.73,1.45,.78,1.41,.84,1.38,.89,1.34,.94,1.3,.99,1.26,1.04,1.22,1.08,1.18,1.13,1.13,1.17,1.09,1.21,1.04,1.26,.99,1.29,.94,1.33,.89,1.37,.84,1.41,.79,1.44,.73,1.47,.67,1.51,.62,1.54,.56,1.56,.5,1.59,.43,1.62,.37,1.64,.31,1.67,.24,1.69,.17,1.71,.11,1.73,.04,1.75h0v56.83h-28.35v-56.57l-.19-2.29-.54-2.17-.86-2.03-1.15-1.85-1.42-1.65-1.65-1.41-1.86-1.15-2.03-.86-2.18-.53-2.3-.18-2.3,.18-2.18,.53-2.03,.86-1.86,1.15-1.65,1.41-1.42,1.65-1.15,1.85-.86,2.03-.54,2.17-.19,2.29v56.6h-28.35v-56.85l.04-1.75h0Z" vector-effect="non-scaling-stroke"/>
  <path id="svg_159" data-name="svg 159" class="cls-1" d="M778.4,263.35h0v.34l-.04,1.74-.11,1.72-.17,1.7-.24,1.68-.31,1.66-.37,1.64-.43,1.61-.5,1.59-.56,1.56-.62,1.53-.67,1.5-.73,1.47-.79,1.43-.84,1.4-.89,1.36-.94,1.33-.99,1.29-1.04,1.25-1.09,1.21-1.13,1.17-1.18,1.12-1.22,1.08-1.26,1.03-1.3,.98-1.34,.93-1.38,.88-1.41,.83-1.45,.78-1.48,.72-1.51,.67-1.54,.61-1.57,.55-1.6,.49-1.62,.43-1.65,.37-1.67,.3-1.69,.24-1.72,.17-1.74,.1-1.75,.04h0v-28.38h0s2.3-.18,2.3-.18l2.18-.53,2.03-.85,1.86-1.14,1.65-1.41,1.42-1.64,1.15-1.84,.86-2.02,.54-2.16,.19-2.28v-30.64l-.8,.29-1.6,.51-1.62,.44-1.65,.38-1.67,.31-1.69,.25-1.71,.18-1.73,.11-1.75,.04-1.75-.04-1.73-.11-1.71-.18-1.69-.25-1.67-.31-1.65-.38-1.62-.44-1.6-.51-1.57-.57-1.54-.63-1.51-.69-1.48-.74-1.44-.8-1.41-.85-1.37-.91-1.34-.96-1.3-1.01-1.26-1.06-1.22-1.11-1.17-1.15-1.13-1.2-1.09-1.24-1.04-1.28-.99-1.32-.94-1.36-.89-1.4-.84-1.44-.78-1.47-.73-1.51-.67-1.54-.62-1.57-.56-1.6-.5-1.63-.43-1.65-.37-1.68-.31-1.7-.24-1.73-.17-1.75-.11-1.77-.02-1.08h.27v-14.04h-.27l.02-1.08,.11-1.77,.17-1.75,.24-1.73,.31-1.7,.37-1.68,.43-1.65,.5-1.63,.56-1.6,.62-1.57,.67-1.54,.73-1.51,.78-1.47,.84-1.44,.89-1.4,.94-1.36,.99-1.32,1.04-1.28,1.09-1.24,1.13-1.2,1.17-1.15,1.22-1.11,1.26-1.06,1.3-1.01,1.34-.96,1.37-.91,1.41-.85,1.44-.8,1.48-.74,1.51-.69,1.54-.63,1.57-.57,1.6-.51,1.62-.44,1.65-.38,1.67-.31,1.69-.25,1.71-.18,1.73-.11,1.75-.04,1.75,.04,1.73,.11,1.71,.18,1.69,.25,1.67,.31,1.65,.38,1.62,.44,1.6,.51,1.57,.57,1.54,.63,1.51,.69,1.48,.74,1.44,.8,1.41,.85,1.37,.91,1.34,.96,1.3,1.01,1.26,1.06,1.22,1.11,1.17,1.15,1.13,1.2,1.09,1.24,1.04,1.28,.99,1.32,.94,1.36,.89,1.4,.84,1.44,.78,1.47,.73,1.51,.67,1.54,.62,1.57,.56,1.6,.5,1.63,.43,1.65,.37,1.68,.31,1.7,.24,1.73,.17,1.75,.11,1.77,.02,.93h.12v84.85h0Zm-44.87-97.97l-2.18,.55-2.03,.87-1.86,1.17-1.65,1.44-1.41,1.68-1.15,1.89-.86,2.07-.54,2.22-.1,1.22h.18v14.2h-.19l.11,1.38,.54,2.22,.86,2.07,1.15,1.89,1.41,1.68,1.65,1.44,1.86,1.17,2.03,.87,2.18,.55,2.3,.19,2.3-.19,2.18-.55,2.03-.87,1.86-1.17,1.65-1.44,1.41-1.68,1.15-1.89,.86-2.07,.54-2.22,.11-1.38h.15v-14.04h-.15l-.11-1.38-.54-2.22-.86-2.07-1.15-1.89-1.41-1.68-1.65-1.44-1.86-1.17-2.03-.87-2.18-.55-2.3-.19-2.3,.19h0Z" vector-effect="non-scaling-stroke"/>
  <rect id="svg_166" data-name="svg 166" class="cls-1" x="891.79" y="136.07" width="28.35" height="99.21" vector-effect="non-scaling-stroke"/>
  <circle id="svg_167" data-name="svg 167" class="cls-1" cx="905.96" cy="107.72" r="14.17" vector-effect="non-scaling-stroke"/>
</svg>